<svg version="1.1" id="Layer_1" xmlns="http://www.w3.org/2000/svg" xmlns:xlink="http://www.w3.org/1999/xlink" x="0px" y="0px"
	  viewBox="550 400 450 360" xml:space="preserve">
	  <defs>
    <linearGradient id="gradient" x1="0%" y1="0%" x2="100%" y2="0%">
      <stop offset="0%" stop-color="#FBBF24" />
      <stop offset="50%" stop-color="#FCD34D" />
      <stop offset="91%" stop-color="#FBBF24" />
    </linearGradient>
  </defs>

	<g>

   <path fill="url(#gradient)" d="M587.6,413.4c0,0,13.5,24.7,43.2,24.3c18.4-0.2,37.4-5.3,49.1-9.1c-2.4,1-4.9,2-7.3,3.2
			c-1.2,0.6-2.4,1.3-3.6,2c-0.3,0.2-0.6,0.3-0.9,0.5l-0.4,0.2l-0.5,0.3c-0.7,0.4-1.2,0.8-1.8,1.3c-4.8,3.5-9,7.8-12.3,12.6
			c-3.3,4.8-5.7,10-7.5,15.4c-0.9,2.7-1.5,5.4-2,8.1c-0.5,2.7-0.9,5.4-1,8.1c-0.1,2.7,0.4,5.5,1.5,8.2c0.6,1.3,1.3,2.7,2.3,4
			c1,1.3,2.1,2.6,3.8,3.9c1.8,1.4,4.5,1.5,6.4,0l0.7-0.6c1.5-1.1,2.6-2.4,3.5-3.5c0.9-1.1,1.7-2.3,2.3-3.4c1.3-2.2,2-4.4,2.4-6.5
			c0.3-2.2,0.5-4.3,0.8-6.5c0.3-2.1,0.6-4.3,0.9-6.4c0.7-4.2,1.4-8.3,2.6-12.3c1.1-3.9,2.7-7.8,5-11.1c1.1-1.6,2.6-3.3,4.2-4.8
			c1.6-1.5,3.4-2.9,5.3-4.2c3.8-2.5,8.1-4.5,12.5-6c4.5-1.5,9.1-2.5,13.9-3.1c1.4-0.2,2.9-0.3,4.3-0.3c-0.3,0.1-0.5,0.2-0.8,0.4
			c-1.3,0.6-2.5,1.3-3.7,2c-2.4,1.4-4.7,3.1-6.8,4.9c-4.2,3.7-7.8,8-10.6,12.7c-5.6,9.4-8.2,20.3-8.2,31c0,2.7,0.2,5.4,0.6,8
			c0.3,2.7,0.9,5.3,1.6,7.9c1.4,5.2,3.6,10.2,6.5,14.7c1.5,2.3,3.1,4.4,5,6.4c1.8,2,3.9,3.9,6.1,5.5c2.2,1.6,4.5,3.1,7,4.3
			c2.5,1.2,5,2.2,7.7,3c2.6,0.8,5.3,1.3,8.1,1.7c2.7,0.4,5.5,0.5,8.2,0.5c2.7,0,5.5-0.2,8.1-0.5c2.8-0.4,5.5-0.9,8.3-1.7
			c5.5-1.6,10.9-4.3,15.4-8.2c4.6-3.9,8.3-9,10.7-14.7c2.4-5.7,3.4-11.9,3.1-18.2c-0.1-3.1-0.7-6.3-1.6-9.3
			c-0.9-3.1-2.2-6.1-3.9-8.9c-1.7-2.8-3.9-5.5-6.5-7.9c-2.6-2.3-5.7-4.2-9-5.6c-3.3-1.4-6.8-2.1-10.3-2.3c-1.7-0.1-3.4-0.1-5.1,0.1
			c-0.8,0.1-1.7,0.2-2.5,0.3c-0.8,0.1-1.6,0.3-2.5,0.5c-3.5,0.8-7,2.3-10,4.6c-1.5,1.1-2.9,2.4-4.1,3.9c-1.2,1.4-2.2,2.9-3,4.5
			c-1.7,3.1-2.6,6.4-2.9,9.6c-0.2,1.6-0.2,3.2-0.1,4.7c0,0.8,0.1,1.6,0.2,2.3c0.1,0.4,0.1,0.8,0.2,1.2l0.1,0.6
			c0.1,0.2,0.1,0.4,0.2,0.7c0,2.7,2.2,4.9,4.9,4.9s4.9-2.2,4.9-4.9c0.1,0,0.1-0.2,0.2-0.3l0.2-0.4l0.4-0.7l0.8-1.5
			c0.5-1,1-1.9,1.6-2.7c1.1-1.7,2.2-3.2,3.4-4.3c1.1-1.2,2.3-2,3.5-2.6c1.2-0.6,2.4-1.1,4-1.4c0.3-0.1,0.8-0.2,1.2-0.2
			c0.4-0.1,0.9-0.1,1.3-0.2c0.9-0.1,1.7-0.1,2.5-0.1c1.7,0,3.2,0.3,4.7,0.8c1.5,0.5,2.8,1.2,4.1,2.2c1.3,1,2.5,2.2,3.5,3.6
			c1,1.4,2,3.1,2.7,4.8c0.7,1.8,1.2,3.7,1.6,5.6c0.7,3.9,0.5,8.1-0.5,12c-1,3.9-3,7.7-5.8,10.8c-2.8,3.2-6.4,5.7-10.6,7.5
			c-2.1,0.9-4.3,1.7-6.5,2.2c-2.4,0.6-4.7,1-7.1,1.3c-2.4,0.3-4.8,0.4-7.1,0.3c-2.4-0.1-4.7-0.4-7-0.9c-2.3-0.5-4.6-1.2-6.7-2.1
			c-2.2-0.9-4.3-2.1-6.2-3.4c-1.9-1.4-3.8-2.9-5.4-4.6c-1.6-1.7-3.1-3.6-4.4-5.6c-2.6-4-4.5-8.6-5.7-13.2c-0.6-2.3-1.1-4.7-1.3-7.2
			c-0.3-2.4-0.4-4.8-0.3-7.3c0.2-9.7,3.1-19.3,8.5-27.2c2.7-3.9,5.9-7.4,9.7-10.1c1.9-1.4,3.8-2.6,5.9-3.6c1-0.5,2.1-1,3.1-1.4
			c1.1-0.4,2.2-0.8,3.3-1.2c4.5-1.4,9.1-2.3,13.7-2.4c4.6-0.1,9.2,0.4,13.8,1.4c9.2,2,18.1,6,27,10.5c4.5,2.3,8.9,4.6,13.5,7
			c4.6,2.4,9.2,4.7,14.1,6.9c4.8,2.2,9.8,4.3,15.1,6c2.6,0.9,5.3,1.7,8,2.4c2.7,0.7,5.5,1.3,8.3,1.7c1.2,0.2,2.4,0.4,3.5,0.5
			c-2.8,2.5-5.6,5.2-8.2,8l0,0c-3.9,4.3-7.5,8.8-10.7,13.6c-3.2,4.8-6.1,9.7-8.7,14.8c-2.6,5.1-4.8,10.3-6.8,15.6
			c-1.9,5.3-3.6,10.7-4.8,16.3c0,0.2,0,0.3,0,0.5c0.1,0.6,0.7,1,1.3,0.9c5.6-1.2,11-2.9,16.3-4.8c5.3-2,10.5-4.2,15.6-6.8
			c10.2-5.1,19.8-11.5,28.4-19.4c2.8-2.6,5.5-5.3,8-8.2c0.1,1.2,0.3,2.4,0.5,3.5c0.5,2.8,1,5.6,1.7,8.3c0.7,2.7,1.5,5.4,2.4,8
			c1.7,5.2,3.8,10.2,6,15.1c2.2,4.8,4.6,9.5,6.9,14.1c2.4,4.6,4.7,9.1,7,13.5c4.5,8.9,8.5,17.8,10.5,27c1,4.6,1.5,9.2,1.4,13.8
			c-0.1,4.6-1,9.2-2.4,13.7c-0.4,1.1-0.8,2.2-1.2,3.3c-0.4,1-0.9,2.1-1.4,3.1c-1,2.1-2.3,4-3.6,5.9c-2.7,3.8-6.2,7-10.1,9.7
			c-7.9,5.3-17.5,8.2-27.2,8.5c-2.4,0.1-4.9,0-7.3-0.3c-2.4-0.3-4.8-0.7-7.2-1.3c-4.7-1.2-9.2-3.1-13.2-5.7c-2-1.3-3.9-2.8-5.6-4.4
			c-1.7-1.7-3.3-3.5-4.6-5.4c-1.4-1.9-2.5-4-3.4-6.2c-0.9-2.2-1.7-4.4-2.1-6.7c-0.5-2.3-0.8-4.7-0.9-7c-0.1-2.4,0-4.8,0.3-7.1
			c0.3-2.4,0.7-4.7,1.3-7.1c0.5-2.2,1.3-4.5,2.2-6.5c1.8-4.1,4.4-7.8,7.5-10.6c3.2-2.8,6.9-4.7,10.8-5.8c3.9-1.1,8.1-1.2,12-0.5
			c2,0.3,3.9,0.9,5.6,1.6c1.8,0.7,3.4,1.6,4.8,2.7c1.4,1,2.6,2.3,3.6,3.5c1,1.3,1.7,2.7,2.2,4.1c0.5,1.5,0.8,3,0.8,4.7
			c0,0.8,0,1.7-0.1,2.5c-0.1,0.4-0.1,0.9-0.2,1.3c-0.1,0.5-0.2,0.9-0.2,1.2c-0.3,1.5-0.8,2.8-1.4,4c-0.6,1.2-1.4,2.3-2.6,3.5
			c-1.1,1.1-2.6,2.3-4.3,3.4c-0.9,0.5-1.8,1.1-2.7,1.6l-1.5,0.8l-0.7,0.4l-0.4,0.2c-0.1,0.1-0.3,0.1-0.3,0.2c-2.7,0-4.9,2.2-4.9,4.9
			s2.2,4.9,4.9,4.9c0.3,0.1,0.5,0.1,0.7,0.2l0.6,0.1c0.4,0.1,0.8,0.1,1.2,0.2c0.8,0.1,1.6,0.2,2.3,0.2c1.6,0.1,3.1,0.1,4.7-0.1
			c3.2-0.4,6.4-1.3,9.6-2.9c1.6-0.8,3.1-1.8,4.5-3c1.4-1.2,2.7-2.6,3.9-4.1c2.3-3,3.8-6.6,4.6-10c0.2-0.9,0.4-1.7,0.5-2.5
			c0.1-0.8,0.2-1.6,0.3-2.5c0.1-1.7,0.2-3.4,0.1-5.1c-0.2-3.4-0.9-7-2.3-10.3c-1.3-3.3-3.3-6.4-5.6-9c-2.3-2.6-5-4.8-7.9-6.5
			c-2.8-1.7-5.9-3-8.9-3.9c-3.1-0.9-6.2-1.4-9.3-1.6c-6.2-0.3-12.5,0.7-18.2,3.1c-5.7,2.4-10.8,6.1-14.7,10.7
			c-3.9,4.6-6.6,10-8.2,15.4c-0.8,2.8-1.3,5.5-1.7,8.3c-0.3,2.7-0.5,5.4-0.5,8.1c0,2.7,0.1,5.5,0.5,8.2c0.3,2.7,0.9,5.4,1.7,8.1
			c0.8,2.6,1.8,5.2,3,7.7c1.2,2.5,2.7,4.8,4.3,7c1.6,2.2,3.5,4.2,5.5,6.1c2,1.8,4.2,3.5,6.4,5c4.6,2.9,9.6,5.1,14.7,6.5
			c2.6,0.7,5.2,1.2,7.9,1.6c2.7,0.4,5.3,0.6,8,0.6c10.7,0,21.6-2.6,31-8.2c4.7-2.8,9-6.4,12.7-10.6c1.8-2.1,3.5-4.4,4.9-6.8
			c0.7-1.2,1.4-2.4,2-3.7c0.1-0.3,0.2-0.5,0.4-0.8c-0.1,1.4-0.2,2.9-0.3,4.3c-0.5,4.7-1.6,9.4-3.1,13.9c-1.5,4.5-3.5,8.7-6,12.5
			c-1.3,1.9-2.7,3.7-4.2,5.3c-1.5,1.6-3.2,3.2-4.8,4.2c-3.3,2.3-7.1,3.9-11.1,5c-4,1.1-8.1,1.9-12.3,2.6c-2.1,0.3-4.2,0.6-6.4,0.9
			c-2.1,0.3-4.3,0.5-6.5,0.8c-2.2,0.4-4.3,1.1-6.5,2.4c-1.1,0.6-2.2,1.4-3.4,2.3c-1.1,0.9-2.3,2-3.5,3.5l-0.6,0.7
			c-1.4,1.8-1.4,4.5,0,6.4c1.3,1.7,2.5,2.8,3.9,3.8c1.3,1,2.6,1.7,4,2.3c2.7,1.1,5.4,1.6,8.2,1.5c2.7-0.1,5.4-0.5,8.1-1
			c2.7-0.5,5.4-1.2,8.1-2c5.3-1.7,10.5-4.2,15.4-7.5c4.8-3.3,9.2-7.5,12.6-12.3c0.4-0.6,0.8-1.2,1.3-1.8l0.3-0.5l0.2-0.4
			c0.2-0.4,0.4-0.6,0.5-0.9c0.7-1.2,1.3-2.4,2-3.6c1.2-2.4,2.2-4.8,3.2-7.3c-3.8,11.7-8.8,30.7-9.1,49.1
			c-0.4,29.7,24.3,43.2,24.3,43.2v0l0,0v-337H587.6z M890.7,427.7c-12.1,3.6-28.5,6.4-44.9,2.8c-4.4-1-8.3-1.9-11.7-2.8H890.7z
			 M868.3,483.8c-3.9,6.5-8.3,12.7-13.5,18.3c-7.2,8-15.8,14.8-25.1,20.7c-4.7,2.9-9.5,5.5-14.5,7.9c-4.3,2-8.8,3.9-13.4,5.5
			c1.5-4.5,3.4-9,5.5-13.4c2.4-5,5-9.8,7.9-14.5c2.9-4.7,6.1-9.1,9.5-13.3c3.4-4.2,7.1-8.2,11.1-11.8l0,0
			c5.6-5.1,11.8-9.6,18.3-13.5c0.4,0,0.9-0.1,1.3-0.1c-10.2,12.5-13.6,26.5-13.6,26.5s13.9-3.4,26.5-13.6
			C868.4,483,868.4,483.4,868.3,483.8z M875.9,442.5c-3.9,2-8,3.7-12.2,4.9c-4.2,1.2-8.5,2-12.9,2.3c-0.6,0-1.1,0.1-1.7,0.1l-0.8,0
			l-0.9,0c-1,0-2.2,0-3.3,0c-2.2,0-4.5-0.2-6.7-0.4c-4.5-0.5-9-1.4-13.6-2.6c-4.6-1.2-9.1-2.7-13.7-4.4c-4.6-1.7-9.2-3.6-13.9-5.5
			c-4.7-1.9-9.4-3.9-14.3-5.8c-2.9-1.1-5.8-2.2-8.8-3.3h40.3c5.6,2.9,15,6.4,30.9,9.8c5.9,1.3,11.8,1.8,17.6,1.8
			c9,0,17.4-1.3,24.8-3.1C883.1,438.5,879.6,440.6,875.9,442.5z M910.3,565c-1-3-2.1-5.9-3.3-8.8c-1.9-4.9-3.9-9.6-5.8-14.3
			c-1.9-4.7-3.8-9.3-5.5-13.9c-1.7-4.6-3.2-9.2-4.4-13.7c-1.2-4.6-2.1-9.1-2.6-13.6c-0.2-2.2-0.4-4.5-0.4-6.7c0-1.1,0-2.3,0-3.3
			l0-0.9l0-0.8c0-0.6,0.1-1.1,0.1-1.7c0.3-4.4,1.1-8.7,2.3-12.9c1.2-4.2,2.9-8.3,4.9-12.2c1.8-3.5,3.8-7,6-10.4
			c-3.4,12.5-5.5,28.7-2,45.1c3.8,17.5,7.7,27.2,10.8,32.5V565z M910.3,510.3c-1.2-4.1-2.5-9-3.8-14.9c-3.8-17.7-0.2-35.5,3.8-47.8
			V510.3z"/>

    	</g>
</svg>