<svg version="1.1" id="Layer_1" xmlns="http://www.w3.org/2000/svg" xmlns:xlink="http://www.w3.org/1999/xlink" x="0px" y="0px"
	 viewBox="1000 1500 500 100"  xml:space="preserve">

	<g>
		
		
		<path fill="#00000" d="M1410.8,1555.8h-2.7c0-0.7-0.9-1.3-1.5-0.7c-0.3,0.2-0.6,0.5-0.9,0.7h-2.1c-0.8-0.4-1.7-0.7-2.6-1
			c-1.9-0.6-3.8-0.9-5.7-1.1c0.7-0.9,1.3-1.8,1.8-2.8c0.3-0.7,0.6-1.3,0.9-2c0.1-0.3,0.3-0.7,0.4-1c0.1-0.4,0.2-0.7,0.3-1.1l0-0.1
			c0-0.2,0-0.3,0-0.5c0-1-0.9-1.9-2-1.8c-1,0-1.9,0.9-1.8,2c0,0.2,0,0.5,0,0.8c0,0.3-0.1,0.6-0.1,0.9c-0.1,0.6-0.3,1.2-0.5,1.8
			c-0.4,1.2-0.9,2.3-1.6,3.2c-0.2,0.2-0.3,0.4-0.5,0.6c-1.9,0-3.9,0.2-5.8,0.5c-2.1,0.4-4.2,0.9-6.3,1.7h-3.2
			c-0.2-0.1-0.4-0.1-0.5-0.2c-1.5-0.7-2.9-1.5-4.4-2.3c0.1-0.2,0.2-0.5,0.4-0.9c-0.6-0.3-1.3-0.3-1.8,0.1c-1.1-0.6-2.2-1.3-3.3-1.9
			c-2.1-1.2-4.1-2.5-6.3-3.6c-2.2-1.1-4.4-2.2-6.8-2.9c-2.4-0.7-5-1.1-7.6-0.8c-1.3,0.1-2.6,0.4-3.9,0.9c-1.3,0.5-2.5,1.3-3.4,2.3
			c-1,1-1.7,2.3-2.2,3.7c-0.4,1.4-0.6,2.8-0.4,4.2c0,0.4,0.1,0.7,0.2,1.1h-2.9c-0.6-0.9-1.6-1.5-2.7-1.5h-9c1-0.9,1.9-1.8,2.8-2.8
			c1.5-1.7,2.9-3.5,4-5.5c1.2-1.9,2.2-4,3.1-6.1c0.5-1.1,0.9-2.1,1.2-3.2c0.2-0.6,0.4-1.1,0.5-1.7c0.2-0.6,0.3-1.1,0.5-1.8l0.1-0.3
			c0.1-0.3,0.1-0.6,0.1-0.9c-0.1-1.9-1.8-3.2-3.6-3.1c-1.9,0.1-3.2,1.8-3.1,3.6c0,0.3,0,0.9,0,1.3c0,0.5-0.1,1-0.1,1.5
			c-0.1,1-0.3,2-0.5,2.9c-0.5,1.9-1.1,3.8-1.9,5.7c-0.8,1.8-1.9,3.6-3,5.2c-1.2,1.6-2.5,3.1-4.1,4.5c-0.3,0.2-0.6,0.5-0.8,0.7h-5.7
			c-1.1-0.4-2.2-0.8-3.3-1.2c-3.3-1-6.8-1.6-10.2-1.9c1.2-1.6,2.3-3.3,3.2-5c0.6-1.2,1.1-2.4,1.6-3.6c0.2-0.6,0.5-1.2,0.7-1.9
			c0.2-0.7,0.4-1.2,0.6-2l0.1-0.3c0.1-0.3,0.1-0.5,0.1-0.8c-0.1-1.9-1.6-3.3-3.5-3.2c-1.9,0.1-3.3,1.6-3.2,3.5c0,0.4,0,1-0.1,1.5
			c-0.1,0.5-0.1,1.1-0.2,1.6c-0.2,1.1-0.5,2.1-0.8,3.1c-0.6,1.7-1.3,3.3-2.3,4.9c-0.1-1.4-0.4-2.8-0.8-4.1c-0.8-2.4-2.1-4.7-3.8-6.5
			c-1.7-1.8-3.9-3.2-6.1-4.2c-2.2-0.9-4.6-1.4-6.9-1.7c-4.6-0.5-9.2,0.2-13.5,1.5c-4.3,1.3-8.3,3.2-12.1,5.2
			c-2.4,1.2-4.7,2.5-6.9,3.9c-2.3-1.3-4.6-2.6-6.9-3.9c-3.8-2-7.8-3.9-12.1-5.2c-4.3-1.3-8.9-1.9-13.5-1.5c-2.3,0.2-4.7,0.7-6.9,1.7
			c-2.2,0.9-4.4,2.3-6.1,4.2c-1.7,1.8-3.1,4.1-3.8,6.5c-0.4,1.3-0.7,2.7-0.8,4.1c-0.9-1.5-1.7-3.1-2.3-4.9c-0.3-1-0.6-2.1-0.8-3.1
			c-0.1-0.5-0.2-1.1-0.2-1.6c-0.1-0.5-0.1-1.1-0.1-1.5c0-0.3,0-0.6-0.1-0.9c-0.4-1.8-2.2-3-4-2.6s-3,2.2-2.6,4l0.1,0.2
			c0.2,0.8,0.4,1.4,0.6,2c0.2,0.6,0.4,1.3,0.7,1.9c0.5,1.2,1,2.4,1.6,3.6c0.9,1.8,2,3.5,3.2,5c-3.4,0.3-6.9,0.9-10.2,1.9
			c-1.1,0.3-2.2,0.7-3.3,1.2h-5.7c-0.3-0.2-0.6-0.5-0.8-0.7c-1.5-1.3-2.9-2.9-4.1-4.5c-1.2-1.6-2.2-3.4-3-5.2
			c-0.8-1.8-1.5-3.7-1.9-5.7c-0.2-1-0.4-1.9-0.5-2.9c-0.1-0.5-0.1-1-0.1-1.5c0-0.5-0.1-1,0-1.3c0-0.3,0-0.6-0.1-0.9
			c-0.4-1.8-2.2-3-4-2.6c-1.8,0.4-3,2.2-2.6,4l0.1,0.3c0.1,0.7,0.3,1.2,0.5,1.8c0.2,0.6,0.3,1.1,0.5,1.7c0.4,1.1,0.8,2.2,1.2,3.2
			c0.9,2.1,1.9,4.2,3.1,6.1c1.2,1.9,2.5,3.8,4,5.5c0.9,1,1.8,2,2.8,2.8h-9c-1.1,0-2.2,0.6-2.8,1.5h-2.9c0.1-0.4,0.2-0.7,0.2-1.1
			c0.2-1.4,0-2.9-0.4-4.2c-0.4-1.4-1.2-2.6-2.2-3.7c-1-1-2.2-1.8-3.4-2.3c-1.3-0.5-2.6-0.8-3.9-0.9c-2.6-0.3-5.2,0.1-7.6,0.8
			c-2.4,0.7-4.7,1.8-6.8,2.9c-2.2,1.1-4.2,2.4-6.3,3.6c-1.1,0.7-2.2,1.3-3.3,1.9c-0.5-0.3-1.2-0.4-1.8-0.1c0.2,0.4,0.3,0.7,0.4,0.9
			c-1.4,0.8-2.9,1.6-4.4,2.3c-0.2,0.1-0.4,0.1-0.5,0.2h-3.2c-2-0.7-4.1-1.3-6.3-1.7c-1.9-0.3-3.9-0.5-5.8-0.5
			c-0.2-0.2-0.3-0.4-0.5-0.6c-0.7-1-1.2-2.1-1.6-3.2c-0.2-0.6-0.3-1.2-0.5-1.8c-0.1-0.3-0.1-0.6-0.1-0.9c0-0.3-0.1-0.6,0-0.8
			c0-1-0.8-1.9-1.8-2c-1,0-1.9,0.8-2,1.8c0,0.2,0,0.3,0,0.5l0,0.1c0.1,0.4,0.2,0.8,0.3,1.1c0.1,0.4,0.2,0.7,0.4,1
			c0.3,0.7,0.6,1.4,0.9,2c0.5,1,1.1,2,1.8,2.8c-1.9,0.2-3.9,0.5-5.7,1.1c-0.9,0.3-1.7,0.6-2.6,1h-2.1c-0.3-0.2-0.6-0.5-0.9-0.7
			c-0.6-0.6-1.5,0-1.5,0.7h-2.7c-0.9,0-1.6,0.7-1.6,1.6c0,0.9,0.7,1.6,1.6,1.6h2.7c0,0.7,0.9,1.3,1.5,0.7c0.3-0.2,0.6-0.5,0.9-0.7
			h2.1c0.8,0.4,1.7,0.7,2.6,1c1.9,0.6,3.8,0.9,5.7,1.1c-0.7,0.9-1.3,1.8-1.8,2.8c-0.3,0.7-0.6,1.3-0.9,2c-0.1,0.3-0.3,0.7-0.4,1
			c-0.1,0.4-0.2,0.7-0.3,1.1l0,0.1c-0.2,1,0.4,2,1.4,2.3c1,0.2,2-0.4,2.3-1.4c0-0.2,0-0.3,0-0.5c0-0.2,0-0.5,0-0.8
			c0-0.3,0.1-0.6,0.1-0.9c0.1-0.6,0.3-1.2,0.5-1.8c0.4-1.2,0.9-2.3,1.6-3.2c0.2-0.2,0.3-0.4,0.5-0.6c1.9,0,3.9-0.2,5.8-0.5
			c2.1-0.4,4.2-0.9,6.3-1.7h3.2c0.2,0.1,0.4,0.1,0.5,0.2c1.5,0.7,2.9,1.5,4.4,2.3c-0.1,0.2-0.2,0.5-0.4,0.9c0.6,0.3,1.3,0.3,1.8-0.1
			c1.1,0.6,2.2,1.3,3.3,1.9c2.1,1.2,4.1,2.5,6.3,3.6c2.2,1.1,4.4,2.2,6.8,2.9c2.4,0.7,5,1.1,7.6,0.8c1.3-0.1,2.6-0.4,3.9-0.9
			c1.3-0.5,2.5-1.3,3.4-2.3c1-1,1.7-2.3,2.2-3.7c0.4-1.4,0.6-2.8,0.4-4.2c0-0.4-0.1-0.7-0.2-1.1h2.9c0.6,0.9,1.6,1.5,2.7,1.5h9
			c-1,0.9-1.9,1.8-2.8,2.9c-1.5,1.7-2.9,3.5-4,5.5c-1.2,1.9-2.2,4-3.1,6.1c-0.5,1.1-0.9,2.1-1.2,3.2c-0.2,0.6-0.4,1.1-0.5,1.7
			c-0.2,0.6-0.3,1.1-0.5,1.8l-0.1,0.3c-0.1,0.3-0.1,0.6-0.1,0.9c0.1,1.9,1.8,3.2,3.6,3.1c1.9-0.1,3.2-1.8,3.1-3.6c0-0.4,0-0.9,0-1.3
			c0-0.5,0.1-1,0.1-1.5c0.1-1,0.3-2,0.5-2.9c0.5-1.9,1.1-3.8,1.9-5.7c0.8-1.8,1.9-3.6,3-5.2c1.2-1.6,2.5-3.2,4.1-4.5
			c0.3-0.2,0.6-0.5,0.8-0.7h5.7c1.1,0.4,2.2,0.8,3.3,1.2c3.3,1,6.8,1.6,10.2,1.9c-1.2,1.6-2.3,3.3-3.2,5c-0.6,1.2-1.1,2.4-1.6,3.6
			c-0.2,0.6-0.5,1.2-0.7,1.9c-0.2,0.7-0.4,1.2-0.6,2l-0.1,0.3c-0.1,0.3-0.1,0.5-0.1,0.8c0.1,1.9,1.6,3.3,3.5,3.2
			c1.9-0.1,3.3-1.6,3.2-3.5c0-0.4,0-1,0.1-1.5c0.1-0.5,0.1-1.1,0.2-1.6c0.2-1.1,0.5-2.1,0.8-3.1c0.6-1.7,1.3-3.3,2.3-4.9
			c0.1,1.4,0.4,2.8,0.8,4.1c0.8,2.4,2.1,4.7,3.8,6.5c1.7,1.8,3.9,3.2,6.1,4.2c2.2,0.9,4.6,1.4,6.9,1.7c4.6,0.5,9.2-0.2,13.5-1.5
			c4.3-1.3,8.3-3.2,12.1-5.2c2.4-1.2,4.7-2.5,6.9-3.9c2.3,1.3,4.6,2.6,6.9,3.9c3.8,2,7.8,3.9,12.1,5.2c4.3,1.3,8.9,1.9,13.5,1.5
			c2.3-0.2,4.7-0.7,6.9-1.7c2.2-0.9,4.4-2.3,6.1-4.2c1.7-1.8,3.1-4.1,3.8-6.5c0.4-1.3,0.7-2.7,0.8-4.1c0.9,1.5,1.7,3.1,2.3,4.9
			c0.3,1,0.6,2.1,0.8,3.1c0.1,0.5,0.2,1.1,0.2,1.6c0.1,0.5,0.1,1.1,0.1,1.5c0,0.3,0,0.6,0.1,0.9c0.4,1.8,2.2,3,4,2.6
			c1.8-0.4,3-2.2,2.6-4l-0.1-0.2c-0.2-0.8-0.4-1.4-0.6-2c-0.2-0.6-0.4-1.3-0.7-1.9c-0.5-1.2-1-2.4-1.6-3.6c-0.9-1.8-2-3.5-3.2-5
			c3.4-0.3,6.9-0.9,10.2-1.9c1.1-0.3,2.2-0.7,3.3-1.2h5.7c0.3,0.2,0.6,0.5,0.8,0.7c1.5,1.3,2.9,2.9,4.1,4.5c1.2,1.6,2.2,3.4,3,5.2
			c0.8,1.8,1.5,3.7,1.9,5.7c0.2,1,0.4,1.9,0.5,2.9c0.1,0.5,0.1,1,0.1,1.5c0,0.5,0.1,1,0,1.3c0,0.3,0,0.6,0.1,0.9
			c0.4,1.8,2.2,3,4,2.6c1.8-0.4,3-2.2,2.6-4l-0.1-0.3c-0.1-0.7-0.3-1.2-0.5-1.8c-0.2-0.6-0.3-1.1-0.5-1.7c-0.4-1.1-0.8-2.2-1.2-3.2
			c-0.9-2.1-1.9-4.2-3.1-6.1c-1.2-1.9-2.5-3.8-4-5.5c-0.9-1-1.8-2-2.8-2.8h9c1.1,0,2.2-0.6,2.7-1.5h2.9c-0.1,0.4-0.2,0.7-0.2,1.1
			c-0.2,1.4,0,2.9,0.4,4.2c0.4,1.4,1.2,2.6,2.2,3.7c1,1,2.2,1.8,3.4,2.3c1.3,0.5,2.6,0.8,3.9,0.9c2.6,0.3,5.2-0.1,7.6-0.8
			c2.4-0.7,4.7-1.8,6.8-2.9c2.2-1.1,4.2-2.4,6.3-3.6c1.1-0.7,2.2-1.3,3.3-1.9c0.5,0.3,1.2,0.4,1.8,0.1c-0.2-0.4-0.3-0.7-0.4-0.9
			c1.4-0.8,2.9-1.6,4.4-2.3c0.2-0.1,0.4-0.1,0.5-0.2h3.2c2,0.7,4.1,1.3,6.3,1.7c1.9,0.3,3.9,0.5,5.8,0.5c0.2,0.2,0.3,0.4,0.5,0.6
			c0.7,1,1.2,2.1,1.6,3.2c0.2,0.6,0.3,1.2,0.5,1.8c0.1,0.3,0.1,0.6,0.1,0.9c0,0.3,0.1,0.6,0,0.8c0,0.2,0,0.3,0,0.5
			c0.2,1,1.2,1.7,2.3,1.4c1-0.2,1.7-1.2,1.4-2.3l0-0.1c-0.1-0.4-0.2-0.8-0.3-1.1c-0.1-0.4-0.2-0.7-0.4-1c-0.3-0.7-0.6-1.4-0.9-2
			c-0.5-1-1.1-1.9-1.8-2.8c1.9-0.2,3.9-0.5,5.7-1.1c0.9-0.3,1.7-0.6,2.6-1h2.1c0.3,0.2,0.6,0.5,0.9,0.7c0.6,0.6,1.5,0,1.5-0.7h2.7
			c0.9,0,1.6-0.7,1.6-1.6C1412.3,1556.5,1411.6,1555.8,1410.8,1555.8z M1399.2,1555.8h-5.9c0.3-0.2,0.5-0.5,0.8-0.7
			C1395.8,1555.1,1397.5,1555.3,1399.2,1555.8z M1386.7,1555.6c1.3-0.2,2.6-0.4,3.9-0.5c-0.2,0.1-0.3,0.2-0.5,0.4
			c-0.2,0.1-0.4,0.2-0.5,0.3h-3.7C1386.2,1555.7,1386.4,1555.6,1386.7,1555.6z M1341.4,1548.4c1.3-1.5,3.3-2.4,5.5-2.7
			c2.2-0.3,4.5-0.1,6.7,0.5c2.2,0.6,4.4,1.5,6.5,2.5c2.1,1,4.2,2.2,6.3,3.4c1.1,0.6,2.3,1.3,3.4,1.9c0,0.7,0.4,1.3,1,1.7
			c0.2-0.4,0.4-0.7,0.5-0.8c0.6,0.3,1.2,0.6,1.7,0.9h-20.9c0.1-0.5,0.2-0.9,0.2-1.4c0.1-0.8,0-1.5,0-2.2c0-0.4-0.1-0.7-0.2-1.1
			c0-0.2-0.1-0.4-0.1-0.5l-0.1-0.3c0-0.1,0-0.2-0.1-0.3c-0.4-1.2-1.8-1.8-3-1.4c-1.2,0.4-1.8,1.8-1.4,3c0,0,0,0.1,0,0.1l0.1,0.2
			c0,0.1,0.1,0.2,0.1,0.3c0.1,0.2,0.1,0.5,0.2,0.7c0.1,0.3,0.1,0.6,0.1,1c-0.1-0.1-0.3-0.1-0.4-0.2c-0.3-0.1-0.7-0.2-1-0.3
			c-1.4-0.4-3.1-0.5-4.6,0c-0.7,0.2-1.3,0.6-1.9,1c0-0.1-0.1-0.3-0.1-0.4C1339.5,1552,1340.1,1549.9,1341.4,1548.4z M1302.4,1554
			h-7.2c0.3-0.2,0.5-0.5,0.8-0.7C1298.1,1553.4,1300.2,1553.6,1302.4,1554z M1252.4,1542.2c3.8-1.8,7.6-3.5,11.6-4.5
			c3.9-1,8-1.4,11.9-0.9c3.9,0.5,7.4,2.1,9.7,4.8c2.2,2.5,3.2,6.1,2.7,9.4c-0.6,0-1.1,0.1-1.7,0.1c-0.6-0.3-1.3-0.6-1.9-0.8
			c-2.8-0.9-5.7-0.8-8.3-0.1c-0.6,0.2-1.3,0.4-1.8,0.6c-0.2,0.1-0.4,0.2-0.7,0.3c0-0.6,0.1-1.1,0.2-1.7c0.1-0.4,0.2-0.8,0.3-1.2
			c0.1-0.2,0.1-0.4,0.2-0.6l0.1-0.3c0-0.1,0.1-0.2,0.1-0.2c0.8-2.2-0.3-4.5-2.5-5.3c-2.2-0.8-4.5,0.3-5.3,2.5
			c-0.1,0.3-0.1,0.4-0.2,0.6l-0.1,0.5c-0.1,0.3-0.2,0.6-0.2,1c-0.1,0.6-0.2,1.3-0.3,1.9c-0.1,1.3-0.2,2.6-0.1,4
			c0.1,0.9,0.2,1.9,0.5,2.9c-0.7-0.2-1.5-0.5-2.2-0.7c-2.6-1.2-5.2-2.6-7.8-4c0.1-0.3,0.3-0.9,0.6-1.6c-1.1-0.6-2.3-0.4-3.3,0.1
			c-2-1.1-3.9-2.3-5.9-3.5c-0.2-0.1-0.5-0.3-0.7-0.4C1249,1543.9,1250.7,1543,1252.4,1542.2z M1243.8,1567.9c-0.9-0.5-1.7-1-2.6-1.4
			c-2-1.1-4-2.2-6-3.3c0-1.2-0.7-2.4-1.8-2.9c-0.4,0.7-0.7,1.2-1,1.5c-2.9-1.5-5.9-3-8.9-4.3c3-1.3,6-2.8,8.9-4.3
			c0.2,0.3,0.5,0.7,1,1.5c1.1-0.6,1.8-1.7,1.8-2.9c2-1.1,4-2.2,6-3.3c0.9-0.5,1.7-1,2.6-1.4c0.9,0.5,1.7,1,2.6,1.4
			c2,1.1,4,2.2,6,3.3c0,1.2,0.7,2.4,1.8,2.9c0.4-0.7,0.7-1.2,1-1.5c2.9,1.5,5.9,3,8.9,4.3c-3,1.3-6,2.8-8.9,4.3
			c-0.2-0.3-0.5-0.8-1-1.5c-1.1,0.6-1.8,1.7-1.8,2.9c-2,1.1-4,2.2-6,3.3C1245.5,1566.9,1244.7,1567.4,1243.8,1567.9z M1202,1541.5
			c2.3-2.7,5.9-4.3,9.7-4.8c3.9-0.5,7.9-0.1,11.9,0.9c3.9,1,7.8,2.6,11.6,4.5c1.7,0.8,3.4,1.7,5.1,2.6c-0.2,0.1-0.5,0.3-0.7,0.4
			c-2,1.2-3.9,2.3-5.9,3.5c-1-0.6-2.2-0.7-3.3-0.1c0.3,0.8,0.5,1.3,0.6,1.6c-2.6,1.4-5.2,2.8-7.8,4c-0.7,0.3-1.4,0.5-2.2,0.7
			c0.3-1,0.4-1.9,0.5-2.9c0.1-1.4,0.1-2.7-0.1-4c-0.1-0.6-0.2-1.3-0.3-1.9c-0.1-0.3-0.1-0.6-0.2-1l-0.1-0.5
			c-0.1-0.2-0.1-0.3-0.2-0.6c-0.8-2.2-3.2-3.2-5.3-2.5c-2.2,0.8-3.3,3.2-2.5,5.3c0,0,0,0.1,0.1,0.2l0.1,0.3c0.1,0.2,0.1,0.4,0.2,0.6
			c0.1,0.4,0.2,0.8,0.3,1.2c0.1,0.6,0.2,1.1,0.2,1.7c-0.2-0.1-0.5-0.2-0.7-0.3c-0.6-0.2-1.2-0.4-1.9-0.6c-2.5-0.7-5.5-0.8-8.3,0.1
			c-0.7,0.2-1.3,0.5-1.9,0.8c-0.6-0.1-1.1-0.1-1.7-0.1C1198.9,1547.6,1199.8,1544.1,1202,1541.5z M1191.7,1553.3
			c0.2,0.2,0.5,0.5,0.8,0.7h-7.2C1187.4,1553.6,1189.6,1553.4,1191.7,1553.3z M1116.4,1554.9c0.1,0.2,0.3,0.4,0.5,0.8
			c0.6-0.3,1-1,1-1.7c1.1-0.6,2.3-1.2,3.4-1.9c2.1-1.2,4.2-2.3,6.3-3.4c2.1-1,4.3-1.9,6.5-2.5c2.2-0.6,4.5-0.8,6.7-0.5
			c2.2,0.3,4.2,1.2,5.5,2.7c1.3,1.5,1.8,3.6,1.5,5.5c0,0.1-0.1,0.3-0.1,0.4c-0.6-0.4-1.2-0.8-1.9-1c-1.6-0.5-3.2-0.4-4.6,0
			c-0.4,0.1-0.7,0.2-1,0.3c-0.1,0-0.2,0.1-0.4,0.2c0-0.3,0.1-0.6,0.1-1c0-0.2,0.1-0.5,0.2-0.7c0-0.1,0.1-0.2,0.1-0.3l0.1-0.2
			c0,0,0-0.1,0-0.1c0.4-1.2-0.2-2.5-1.4-3c-1.2-0.4-2.5,0.2-3,1.4c-0.1,0.2-0.1,0.2-0.1,0.3l-0.1,0.3c0,0.2-0.1,0.4-0.1,0.5
			c-0.1,0.4-0.1,0.7-0.2,1.1c-0.1,0.7-0.1,1.5,0,2.2c0,0.5,0.1,0.9,0.2,1.4h-20.9C1115.2,1555.5,1115.8,1555.2,1116.4,1554.9z
			 M1100.9,1555.6c0.3,0,0.5,0.1,0.8,0.2h-3.7c-0.2-0.1-0.4-0.2-0.5-0.3c-0.2-0.1-0.3-0.2-0.5-0.4
			C1098.3,1555.2,1099.6,1555.3,1100.9,1555.6z M1093.5,1555c0.3,0.2,0.5,0.5,0.8,0.7h-5.9C1090.1,1555.3,1091.8,1555.1,1093.5,1555
			z M1088.4,1558.9h5.9c-0.3,0.2-0.5,0.5-0.8,0.7C1091.8,1559.5,1090.1,1559.3,1088.4,1558.9z M1100.9,1559
			c-1.3,0.2-2.6,0.4-3.9,0.5c0.2-0.1,0.3-0.2,0.5-0.4c0.2-0.1,0.4-0.2,0.5-0.3h3.7C1101.5,1558.9,1101.2,1559,1100.9,1559z
			 M1146.3,1566.2c-1.3,1.5-3.3,2.4-5.5,2.7c-2.2,0.3-4.5,0.1-6.7-0.5c-2.2-0.6-4.4-1.5-6.5-2.5c-2.1-1-4.2-2.2-6.3-3.4
			c-1.1-0.6-2.3-1.3-3.4-1.9c0-0.7-0.4-1.3-1-1.7c-0.2,0.4-0.4,0.7-0.5,0.8c-0.6-0.3-1.2-0.6-1.7-0.9h20.9c-0.1,0.5-0.2,0.9-0.2,1.4
			c-0.1,0.8,0,1.5,0,2.2c0,0.4,0.1,0.7,0.2,1.1c0,0.2,0.1,0.4,0.1,0.5l0.1,0.3c0,0.1,0,0.2,0.1,0.3c0.4,1.2,1.8,1.8,3,1.4
			c1.2-0.4,1.8-1.8,1.4-3c0,0,0-0.1,0-0.1l-0.1-0.2c0-0.1-0.1-0.2-0.1-0.3c-0.1-0.2-0.1-0.5-0.2-0.7c-0.1-0.3-0.1-0.6-0.1-1
			c0.1,0.1,0.3,0.1,0.4,0.2c0.3,0.1,0.7,0.2,1,0.3c1.4,0.4,3.1,0.5,4.6,0c0.7-0.2,1.3-0.6,1.9-1c0,0.1,0.1,0.3,0.1,0.4
			C1148.1,1562.6,1147.6,1564.7,1146.3,1566.2z M1185.3,1560.6h7.2c-0.3,0.2-0.5,0.5-0.8,0.7
			C1189.6,1561.3,1187.4,1561,1185.3,1560.6z M1235.2,1572.5c-3.8,1.8-7.6,3.5-11.6,4.5c-3.9,1-8,1.4-11.9,0.9
			c-3.9-0.5-7.4-2.1-9.7-4.8c-2.2-2.5-3.2-6.1-2.7-9.4c0.6,0,1.1-0.1,1.7-0.1c0.6,0.3,1.3,0.6,1.9,0.8c2.8,0.9,5.7,0.8,8.3,0.1
			c0.6-0.2,1.3-0.4,1.9-0.6c0.2-0.1,0.4-0.2,0.7-0.3c0,0.6-0.1,1.1-0.2,1.7c-0.1,0.4-0.2,0.8-0.3,1.2c-0.1,0.2-0.1,0.4-0.2,0.6
			l-0.1,0.3c0,0.1-0.1,0.2-0.1,0.2c-0.8,2.2,0.3,4.5,2.5,5.3c2.2,0.8,4.5-0.3,5.3-2.5c0.1-0.3,0.1-0.4,0.2-0.6l0.1-0.5
			c0.1-0.3,0.2-0.6,0.2-1c0.1-0.6,0.2-1.3,0.3-1.9c0.1-1.3,0.2-2.6,0.1-4c-0.1-0.9-0.2-1.9-0.5-2.9c0.7,0.2,1.5,0.5,2.2,0.7
			c2.6,1.2,5.2,2.6,7.8,4c-0.1,0.3-0.3,0.9-0.6,1.6c1.1,0.6,2.3,0.4,3.3-0.1c2,1.1,3.9,2.3,5.9,3.5c0.2,0.1,0.5,0.3,0.7,0.4
			C1238.6,1570.7,1236.9,1571.6,1235.2,1572.5z M1285.6,1573.1c-2.3,2.7-5.9,4.3-9.7,4.8c-3.9,0.5-7.9,0.1-11.9-0.9
			c-3.9-1-7.8-2.6-11.6-4.5c-1.7-0.8-3.4-1.7-5.1-2.6c0.2-0.1,0.5-0.3,0.7-0.4c2-1.2,3.9-2.3,5.9-3.5c1,0.6,2.2,0.7,3.3,0.2
			c-0.3-0.8-0.5-1.3-0.6-1.6c2.6-1.4,5.2-2.8,7.8-4c0.7-0.3,1.4-0.5,2.2-0.7c-0.3,1-0.4,1.9-0.5,2.9c-0.1,1.4-0.1,2.7,0.1,4
			c0.1,0.6,0.2,1.3,0.3,1.9c0.1,0.3,0.1,0.6,0.2,1l0.1,0.5c0.1,0.2,0.1,0.3,0.2,0.6c0.8,2.2,3.2,3.2,5.3,2.5
			c2.2-0.8,3.3-3.2,2.5-5.3c0,0,0-0.1-0.1-0.2l-0.1-0.3c-0.1-0.2-0.1-0.4-0.2-0.6c-0.1-0.4-0.2-0.8-0.3-1.2
			c-0.1-0.6-0.2-1.1-0.2-1.7c0.2,0.1,0.5,0.2,0.7,0.3c0.6,0.2,1.2,0.4,1.9,0.6c2.5,0.7,5.5,0.8,8.3-0.1c0.7-0.2,1.3-0.5,1.9-0.8
			c0.6,0.1,1.1,0.1,1.7,0.1C1288.8,1567,1287.8,1570.6,1285.6,1573.1z M1295.9,1561.3c-0.2-0.2-0.5-0.5-0.8-0.7h7.2
			C1300.2,1561,1298.1,1561.3,1295.9,1561.3z M1371.2,1559.7c-0.1-0.2-0.3-0.4-0.5-0.8c-0.6,0.3-1,1-1,1.7c-1.1,0.6-2.3,1.2-3.4,1.9
			c-2.1,1.2-4.2,2.3-6.3,3.4c-2.1,1-4.3,1.9-6.5,2.5c-2.2,0.6-4.5,0.8-6.7,0.5c-2.2-0.3-4.2-1.2-5.5-2.7c-1.3-1.5-1.8-3.6-1.5-5.5
			c0-0.1,0.1-0.3,0.1-0.4c0.6,0.4,1.2,0.8,1.9,1c1.6,0.5,3.2,0.4,4.6,0c0.4-0.1,0.7-0.2,1-0.3c0.1,0,0.2-0.1,0.4-0.2
			c0,0.3-0.1,0.6-0.1,1c0,0.2-0.1,0.5-0.2,0.7c0,0.1-0.1,0.2-0.1,0.3l-0.1,0.2c0,0,0,0.1,0,0.1c-0.4,1.2,0.2,2.5,1.4,3
			s2.5-0.2,3-1.4c0.1-0.2,0.1-0.2,0.1-0.3l0.1-0.3c0-0.2,0.1-0.4,0.1-0.5c0.1-0.4,0.1-0.7,0.2-1.1c0.1-0.7,0.1-1.5,0-2.2
			c0-0.5-0.1-0.9-0.2-1.4h20.9C1372.4,1559.1,1371.8,1559.4,1371.2,1559.7z M1386.7,1559c-0.3,0-0.5-0.1-0.8-0.2h3.7
			c0.2,0.1,0.4,0.2,0.5,0.3c0.2,0.1,0.3,0.2,0.5,0.4C1389.3,1559.4,1388,1559.3,1386.7,1559z M1394.1,1559.6
			c-0.3-0.2-0.5-0.5-0.8-0.7h5.9C1397.5,1559.3,1395.8,1559.5,1394.1,1559.6z"/>
	</g>
</svg>